<?xml version="1.0" encoding="utf-8"?><!-- Generator: Adobe Illustrator 26.3.1, SVG Export Plug-In . SVG Version: 6.00 Build 0)  --><svg xmlns="http://www.w3.org/2000/svg" xmlns:xlink="http://www.w3.org/1999/xlink" version="1.1" id="Layer_1" x="0px" y="0px" viewBox="0 0 1026.9 772.1" style="enable-background:new 0 0 1026.9 772.1;" xml:space="preserve" preserveAspectRatio="none">
<style type="text/css">
	.st0{fill:#FFF4D4;}
	.st1{fill:#99C8FF;}
	.st2{fill:#1D7058;}
	.st3{fill:#4F4F4F;}
	.st4{fill:#0C513F;}
	.st5{fill:none;stroke:#038B5C;stroke-width:2;stroke-miterlimit:10;}
	.st6{fill:#038B5C;}
	.st7{fill:#135B45;}
	.st8{fill:#A85A7A;}
	.st9{fill:#02C27F;}
	.st10{fill:#EFEFEF;}
	.st11{fill:#FFDBC9;}
	.st12{fill:#FFFBEE;}
	.st13{fill:#EF84BA;}
	.st14{fill:#FFC501;}
	.st15{fill:none;stroke:#0C513F;stroke-width:0.91;stroke-miterlimit:10;}
	.st16{fill:#FFBB38;}
	.st17{fill:#DBC68A;}
	.st18{fill:#FF884D;}
	.st19{fill:#FFFEFF;}
	.st20{fill:#E8D295;}
	.st21{fill:#EAAD00;}
	.st22{fill:#FFEDB3;}
	.st23{fill:#FFF5D9;}
	.st24{fill:#E2D4B3;}
	.st25{fill:#2E75AF;}
	.st26{fill:#DBDAEA;}
	.st27{fill:#3891CE;}
	.st28{fill:#766FD1;}
	.st29{fill:#FFB3CE;}
	.st30{fill:#C3BFE2;}
	.st31{fill:#51A3E5;}
	.st32{fill:#00AD5E;}
	.st33{fill:#1BB470;}
	.st34{fill:#48C173;}
	.st35{fill:#FFFFFF;}
	.st36{fill:#728780;}
	.st37{fill:none;stroke:#9CB5AC;stroke-miterlimit:10;stroke-dasharray:0,0,12,20;}
	.st38{fill:#CCF3E5;}
	.st39{fill:none;stroke:#9CB5AC;stroke-miterlimit:10;}
</style>
<g>
	<g id="Layer_2_00000070811131183939218160000010558311479055867027_">
		<g id="Layer_1-2">
			
				<image style="overflow:visible;opacity:0.73;enable-background:new    ;" width="2049" height="1537" xlink:href="94C990CFEE6B4E85.png" transform="matrix(0.4997 0 0 0.4997 2.1733 0)">
			</image>
			<rect x="2.2" y="0.1" class="st0" width="1024" height="768" fill="null" stroke="null" stroke-width="null"/>
			<path class="st1" d="M1026.2,534.5c0,0.2,0,0.4,0,0.6v12H2.2v-13.9H1.4v-8.9h0.8v-14.7H1.4v-8.9h0.8v-10.5h1024v43.1     C1026.2,533.8,1026.2,534.2,1026.2,534.5L1026.2,534.5z" fill="null" stroke="null" stroke-width="null"/>
			<g>
				<path class="st2" d="M1026.2,534.5c0,0.2,0,0.4,0,0.6v33.1l0.6,201.5L2.2,769.5V627.1H1.4v-8.9h0.8V604H1.4v-8.9h0.8v-14.7H1.4      v-8.9h0.8v-14.7H1.4v-8.9h0.8v-14h6.6l7.7,0h5.7l5.2,0h4.8l7.9,0h10.7l63.2-0.1h3l98-0.2l454-0.7l103.4-0.2h8.2l8.1,0h0.8      l12.1,0h1.1l88.3-0.1h7.1l10.4,0h8l5.9,0h1.8l43.2-0.1l9.2,0h8.1l7.2,0h0.9l33.3,0h0.2v1.1      C1026.2,533.8,1026.2,534.2,1026.2,534.5L1026.2,534.5z" fill="null" stroke="null" stroke-width="null"/>
				<path class="st3" d="M1026.2,534.5H2.2v-1.3H1.4v-0.4h1024.8v0.5C1026.2,533.8,1026.2,534.2,1026.2,534.5L1026.2,534.5z" fill="null" stroke="null" stroke-width="null"/>
				<path class="st2" d="M1026.2,535.1c-0.2,2.2-0.9,4.2-0.7,4.8l-88.1,0.5c-0.2-0.1-0.4-0.2-0.6-0.4l-87.1-0.5      c0.1-0.3-0.2-1.4-0.5-2.7c-0.2,1-0.4,1.8-0.3,2.1l-88.1,0.5c-1.5-0.5-0.9-3.2,0.6-3.2c-0.1-0.6,0.2-1.1,0.7-1.6      c0.2-0.2,0.3-0.3,0.5-0.4c1.6-1,3.6-1.4,5.5-1.1c0.8,0.1,1.5,0.3,2.3,0.4c0.5,0,1-0.2,1.5-0.6c0.1,0,0.2-0.1,0.2-0.2      c1-0.6,2.3-1.3,4.6-0.8l1.1,0.8l0.2,0.2l1.5,1c0.1-0.4,0.3-0.7,0.6-1c0.1-0.1,0.1-0.1,0.2-0.2c1.8-1.6,6.2-1.9,8.1,0      c0.1,0.1,0.1,0.1,0.2,0.2c0.1,0.1,0.1,0.2,0.2,0.3c0.1-0.1,0.2-0.2,0.2-0.3c0.1-0.1,0.1-0.1,0.2-0.2c1.5-1.6,2.7-2.7,5-2.8      c4.3-0.1,5.8,1.5,7.1,2.7c0.1,0.1,0.1,0.1,0.2,0.2c0.2,0.2,0.4,0.4,0.7,0.6c0-0.2,0.1-0.4,0.1-0.6c0-0.1,0-0.1,0.1-0.2      c0.8-1.8,3.9-2.3,5.1-0.6c0.4-1.6,2.2-2.4,3.8-2.3c1.6,0.2,3,1,4.4,1.9c1-2.8,5.4-3.5,7.2-1.2c1.9-2.4,6.2-2.2,7.9,0.3      c0.6-1.2,1.4-2.3,2.2-3.3c1-1.3,3-1.5,4.2-0.4c0.6,0.5,1.1,1.1,1.5,1.8c0.2-1.4,2.8-2.2,4.2-2.1c4,0.3,5.6,2,6.2,4.1      c0.7-1.8,2.4-3.2,6-3.5c1.4-0.1,4,0.7,4.2,2.1c0.4-0.7,0.9-1.3,1.5-1.8c1.2-1.1,3.2-0.9,4.2,0.4c0.8,1,1.6,2.1,2.2,3.3      c1.7-2.5,6-2.7,7.9-0.3c1.8-2.3,6.2-1.6,7.2,1.2c1.4-0.9,2.8-1.8,4.4-1.9c1.5-0.1,3.3,0.6,3.8,2c0,0.1,0,0.1,0.1,0.2      c0.1-0.1,0.1-0.2,0.2-0.2c1.1-1.2,3.1-1,4.3,0c0.1,0.1,0.2,0.2,0.3,0.3c0.3,0.3,0.5,0.8,0.5,1.3c0.5-0.3,0.9-0.8,1.4-1.3      c0.1-0.1,0.2-0.2,0.4-0.3c1.2-1,2.9-2,6.2-1.9c1.9,0,3,0.8,4.2,1.9c0.1,0.1,0.2,0.2,0.4,0.4c0.3,0.3,0.6,0.6,0.9,0.9      c0.2-0.4,0.6-0.7,1-0.9c0.2-0.1,0.5-0.3,0.7-0.4c1.5-0.6,3.5-0.5,5.1,0c0.3,0.1,0.6,0.2,0.9,0.4c0.8,0.4,1.4,1,1.5,1.7      c0,0,0,0,0,0.1l0.1-0.1l2.4-1.7l0.4-0.3c0.2,0,0.4-0.1,0.6-0.1c0.7-0.1,1.2-0.1,1.8,0c0.5,0.1,0.9,0.2,1.3,0.4      c1.2,0.5,1.9,1.3,2.8,1.2c0.8-0.1,1.5-0.3,2.3-0.4c1.7-0.3,3.5,0,5,0.8c0.2,0.1,0.3,0.2,0.5,0.3c0.7,0.4,1.4,1.2,1.2,2      c0.3,0,0.6,0.1,0.9,0.3c-0.1-0.8,0.6-1.4,1.2-1.8c0.5-0.3,0.9-0.5,1.4-0.7c1.3-0.5,2.7-0.6,4.1-0.4c0.8,0.1,1.5,0.3,2.3,0.4      c0.1,0,0.2,0,0.2,0c1.1-0.1,2-1.5,4.2-1.7h0.9c0.3,0,0.6,0.1,1,0.1l2.2,1.5l0.7,0.5c0-0.2,0.1-0.3,0.2-0.5      c0.4-0.7,1.3-1.3,2.4-1.7c1.5-0.5,3.4-0.5,4.8,0c0.8,0.3,1.4,0.7,1.9,1.4c0.5-0.5,0.9-1,1.3-1.4c0.2-0.2,0.3-0.3,0.5-0.5      c1-0.8,2-1.3,3.7-1.4c2.7-0.1,4.4,0.6,5.5,1.4c0.2,0.2,0.4,0.3,0.6,0.5c0.7,0.6,1.2,1.2,1.8,1.7c0,0,0,0,0,0v0      c0.1-0.7,0.4-1.2,1-1.7c0.2-0.2,0.5-0.3,0.8-0.5h0c0.8-0.3,1.8-0.4,2.5,0h0c0.3,0.1,0.5,0.3,0.7,0.5c0.1,0.1,0.2,0.2,0.3,0.3      c0-0.1,0.1-0.2,0.1-0.3c0.1-0.2,0.2-0.3,0.2-0.5c0.7-1.1,2.2-1.6,3.5-1.5c1.3,0.1,2.5,0.8,3.7,1.5c0.2,0.2,0.5,0.3,0.7,0.5      c0.1-0.2,0.1-0.3,0.2-0.5c1.3-2.4,5.3-2.9,7-0.7c1.9-2.4,6.2-2.2,7.9,0.3c0.6-1.2,1.4-2.3,2.2-3.3c1-1.3,3-1.5,4.2-0.4      c0.6,0.5,1.1,1.1,1.5,1.8c0.2-1.4,2.8-2.2,4.2-2.1c4.1,0.3,5.7,2.2,6.2,4.3c0.1,0.2,0.1,0.4,0.1,0.5s0.1,0.4,0.1,0.5      c0,0.4,0,0.8,0,1.1C1026.2,534.7,1026.2,534.9,1026.2,535.1L1026.2,535.1z" fill="null" stroke="null" stroke-width="null"/>
			</g>
			<g>
				<g>
					<g>
						<rect x="993.7" y="489.1" class="st4" width="6.1" height="16" fill="null" stroke="null" stroke-width="null"/>
						<rect x="1003.8" y="489.1" class="st4" width="6.1" height="13.7" fill="null" stroke="null" stroke-width="null"/>
						<rect x="990.6" y="504.9" class="st4" width="12.1" height="5.1" fill="null" stroke="null" stroke-width="null"/>
						<rect x="1000.2" y="502.8" class="st4" width="12.1" height="5.1" fill="null" stroke="null" stroke-width="null"/>
					</g>
					<g>
						<rect x="955.9" y="489.1" class="st4" width="6.1" height="16" fill="null" stroke="null" stroke-width="null"/>
						<rect x="966" y="489.1" class="st4" width="6.1" height="13.7" fill="null" stroke="null" stroke-width="null"/>
						<rect x="952.9" y="504.9" class="st4" width="12.1" height="5.1" fill="null" stroke="null" stroke-width="null"/>
						<rect x="962.4" y="502.8" class="st4" width="12.1" height="5.1" fill="null" stroke="null" stroke-width="null"/>
					</g>
					<g>
						<rect x="918.1" y="489.1" class="st4" width="6.1" height="16" fill="null" stroke="null" stroke-width="null"/>
						<rect x="928.2" y="489.1" class="st4" width="6.1" height="13.7" fill="null" stroke="null" stroke-width="null"/>
						<rect x="915.1" y="504.9" class="st4" width="12.1" height="5.1" fill="null" stroke="null" stroke-width="null"/>
						<rect x="924.6" y="502.8" class="st4" width="12.1" height="5.1" fill="null" stroke="null" stroke-width="null"/>
					</g>
					<g>
						<rect x="880.3" y="489.1" class="st4" width="6.1" height="16" fill="null" stroke="null" stroke-width="null"/>
						<rect x="890.4" y="489.1" class="st4" width="6.1" height="13.7" fill="null" stroke="null" stroke-width="null"/>
						<rect x="877.3" y="504.9" class="st4" width="12.1" height="5.1" fill="null" stroke="null" stroke-width="null"/>
						<rect x="886.8" y="502.8" class="st4" width="12.1" height="5.1" fill="null" stroke="null" stroke-width="null"/>
					</g>
					<g>
						<rect x="842.5" y="489.1" class="st4" width="6.1" height="16" fill="null" stroke="null" stroke-width="null"/>
						<rect x="852.6" y="489.1" class="st4" width="6.1" height="13.7" fill="null" stroke="null" stroke-width="null"/>
						<rect x="839.5" y="504.9" class="st4" width="12.1" height="5.1" fill="null" stroke="null" stroke-width="null"/>
						<rect x="849" y="502.8" class="st4" width="12.1" height="5.1" fill="null" stroke="null" stroke-width="null"/>
					</g>
					<g>
						<rect x="804.7" y="489.1" class="st4" width="6.1" height="16" fill="null" stroke="null" stroke-width="null"/>
						<rect x="814.8" y="489.1" class="st4" width="6.1" height="13.7" fill="null" stroke="null" stroke-width="null"/>
						<rect x="801.7" y="504.9" class="st4" width="12.1" height="5.1" fill="null" stroke="null" stroke-width="null"/>
						<rect x="811.3" y="502.8" class="st4" width="12.1" height="5.1" fill="null" stroke="null" stroke-width="null"/>
					</g>
					<g>
						<rect x="767" y="489.1" class="st4" width="6.1" height="16" fill="null" stroke="null" stroke-width="null"/>
						<rect x="777.1" y="489.1" class="st4" width="6.1" height="13.7" fill="null" stroke="null" stroke-width="null"/>
						<rect x="763.9" y="504.9" class="st4" width="12.1" height="5.1" fill="null" stroke="null" stroke-width="null"/>
						<rect x="773.5" y="502.8" class="st4" width="12.1" height="5.1" fill="null" stroke="null" stroke-width="null"/>
					</g>
					<g>
						<rect x="729.2" y="489.1" class="st4" width="6.1" height="16" fill="null" stroke="null" stroke-width="null"/>
						<rect x="739.3" y="489.1" class="st4" width="6.1" height="13.7" fill="null" stroke="null" stroke-width="null"/>
						<rect x="726.2" y="504.9" class="st4" width="12.1" height="5.1" fill="null" stroke="null" stroke-width="null"/>
						<rect x="735.7" y="502.8" class="st4" width="12.1" height="5.1" fill="null" stroke="null" stroke-width="null"/>
					</g>
					<g>
						<rect x="691.4" y="489.1" class="st4" width="6.1" height="16" fill="null" stroke="null" stroke-width="null"/>
						<rect x="701.5" y="489.1" class="st4" width="6.1" height="13.7" fill="null" stroke="null" stroke-width="null"/>
						<rect x="688.4" y="504.9" class="st4" width="12.1" height="5.1" fill="null" stroke="null" stroke-width="null"/>
						<rect x="697.9" y="502.8" class="st4" width="12.1" height="5.1" fill="null" stroke="null" stroke-width="null"/>
					</g>
					<g>
						<rect x="653.6" y="489.1" class="st4" width="6.1" height="16" fill="null" stroke="null" stroke-width="null"/>
						<rect x="663.7" y="489.1" class="st4" width="6.1" height="13.7" fill="null" stroke="null" stroke-width="null"/>
						<rect x="650.6" y="504.9" class="st4" width="12.1" height="5.1" fill="null" stroke="null" stroke-width="null"/>
						<rect x="660.1" y="502.8" class="st4" width="12.1" height="5.1" fill="null" stroke="null" stroke-width="null"/>
					</g>
					<g>
						<rect x="615.8" y="489.1" class="st4" width="6.1" height="16" fill="null" stroke="null" stroke-width="null"/>
						<rect x="625.9" y="489.1" class="st4" width="6.1" height="13.7" fill="null" stroke="null" stroke-width="null"/>
						<rect x="612.8" y="504.9" class="st4" width="12.1" height="5.1" fill="null" stroke="null" stroke-width="null"/>
						<rect x="622.3" y="502.8" class="st4" width="12.1" height="5.1" fill="null" stroke="null" stroke-width="null"/>
					</g>
					<g>
						<rect x="578" y="489.1" class="st4" width="6.1" height="16" fill="null" stroke="null" stroke-width="null"/>
						<rect x="588.1" y="489.1" class="st4" width="6.1" height="13.7" fill="null" stroke="null" stroke-width="null"/>
						<rect x="575" y="504.9" class="st4" width="12.1" height="5.1" fill="null" stroke="null" stroke-width="null"/>
						<rect x="584.5" y="502.8" class="st4" width="12.1" height="5.1" fill="null" stroke="null" stroke-width="null"/>
					</g>
					<g>
						<rect x="540.2" y="489.1" class="st4" width="6.1" height="16" fill="null" stroke="null" stroke-width="null"/>
						<rect x="550.3" y="489.1" class="st4" width="6.1" height="13.7" fill="null" stroke="null" stroke-width="null"/>
						<rect x="537.2" y="504.9" class="st4" width="12.1" height="5.1" fill="null" stroke="null" stroke-width="null"/>
						<rect x="546.8" y="502.8" class="st4" width="12.1" height="5.1" fill="null" stroke="null" stroke-width="null"/>
					</g>
					<g>
						<rect x="502.5" y="489.1" class="st4" width="6.1" height="16" fill="null" stroke="null" stroke-width="null"/>
						<rect x="512.6" y="489.1" class="st4" width="6.1" height="13.7" fill="null" stroke="null" stroke-width="null"/>
						<rect x="499.5" y="504.9" class="st4" width="12.1" height="5.1" fill="null" stroke="null" stroke-width="null"/>
						<rect x="509" y="502.8" class="st4" width="12.1" height="5.1" fill="null" stroke="null" stroke-width="null"/>
					</g>
					<g>
						<rect x="464.7" y="489.1" class="st4" width="6.1" height="16" fill="null" stroke="null" stroke-width="null"/>
						<rect x="474.8" y="489.1" class="st4" width="6.1" height="13.7" fill="null" stroke="null" stroke-width="null"/>
						<rect x="461.7" y="504.9" class="st4" width="12.1" height="5.1" fill="null" stroke="null" stroke-width="null"/>
						<rect x="471.2" y="502.8" class="st4" width="12.1" height="5.1" fill="null" stroke="null" stroke-width="null"/>
					</g>
					<g>
						<rect x="426.9" y="489.1" class="st4" width="6.1" height="16" fill="null" stroke="null" stroke-width="null"/>
						<rect x="437" y="489.1" class="st4" width="6.1" height="13.7" fill="null" stroke="null" stroke-width="null"/>
						<rect x="423.9" y="504.9" class="st4" width="12.1" height="5.1" fill="null" stroke="null" stroke-width="null"/>
						<rect x="433.4" y="502.8" class="st4" width="12.1" height="5.1" fill="null" stroke="null" stroke-width="null"/>
					</g>
					<g>
						<rect x="389.1" y="489.1" class="st4" width="6.1" height="16" fill="null" stroke="null" stroke-width="null"/>
						<rect x="399.2" y="489.1" class="st4" width="6.1" height="13.7" fill="null" stroke="null" stroke-width="null"/>
						<rect x="386.1" y="504.9" class="st4" width="12.1" height="5.1" fill="null" stroke="null" stroke-width="null"/>
						<rect x="395.6" y="502.8" class="st4" width="12.1" height="5.1" fill="null" stroke="null" stroke-width="null"/>
					</g>
					<g>
						<rect x="351.3" y="489.1" class="st4" width="6.1" height="16" fill="null" stroke="null" stroke-width="null"/>
						<rect x="361.4" y="489.1" class="st4" width="6.1" height="13.7" fill="null" stroke="null" stroke-width="null"/>
						<rect x="348.3" y="504.9" class="st4" width="12.1" height="5.1" fill="null" stroke="null" stroke-width="null"/>
						<rect x="357.9" y="502.8" class="st4" width="12.1" height="5.1" fill="null" stroke="null" stroke-width="null"/>
					</g>
					<g>
						<rect x="313.5" y="489.1" class="st4" width="6.1" height="16" fill="null" stroke="null" stroke-width="null"/>
						<rect x="323.6" y="489.1" class="st4" width="6.1" height="13.7" fill="null" stroke="null" stroke-width="null"/>
						<rect x="310.5" y="504.9" class="st4" width="12.1" height="5.1" fill="null" stroke="null" stroke-width="null"/>
						<rect x="320.1" y="502.8" class="st4" width="12.1" height="5.1" fill="null" stroke="null" stroke-width="null"/>
					</g>
					<g>
						<rect x="275.8" y="489.1" class="st4" width="6.1" height="16" fill="null" stroke="null" stroke-width="null"/>
						<rect x="285.9" y="489.1" class="st4" width="6.1" height="13.7" fill="null" stroke="null" stroke-width="null"/>
						<rect x="272.8" y="504.9" class="st4" width="12.1" height="5.1" fill="null" stroke="null" stroke-width="null"/>
						<rect x="282.3" y="502.8" class="st4" width="12.1" height="5.1" fill="null" stroke="null" stroke-width="null"/>
					</g>
					<g>
						<rect x="238" y="489.1" class="st4" width="6.1" height="16" fill="null" stroke="null" stroke-width="null"/>
						<rect x="248.1" y="489.1" class="st4" width="6.1" height="13.7" fill="null" stroke="null" stroke-width="null"/>
						<rect x="235" y="504.9" class="st4" width="12.1" height="5.1" fill="null" stroke="null" stroke-width="null"/>
						<rect x="244.5" y="502.8" class="st4" width="12.1" height="5.1" fill="null" stroke="null" stroke-width="null"/>
					</g>
					<g>
						<rect x="200.2" y="489.1" class="st4" width="6.1" height="16" fill="null" stroke="null" stroke-width="null"/>
						<rect x="210.3" y="489.1" class="st4" width="6.1" height="13.7" fill="null" stroke="null" stroke-width="null"/>
						<rect x="197.2" y="504.9" class="st4" width="12.1" height="5.1" fill="null" stroke="null" stroke-width="null"/>
						<rect x="206.7" y="502.8" class="st4" width="12.1" height="5.1" fill="null" stroke="null" stroke-width="null"/>
					</g>
					<g>
						<rect x="162.4" y="489.1" class="st4" width="6.1" height="16" fill="null" stroke="null" stroke-width="null"/>
						<rect x="172.5" y="489.1" class="st4" width="6.1" height="13.7" fill="null" stroke="null" stroke-width="null"/>
						<rect x="159.4" y="504.9" class="st4" width="12.1" height="5.1" fill="null" stroke="null" stroke-width="null"/>
						<rect x="168.9" y="502.8" class="st4" width="12.1" height="5.1" fill="null" stroke="null" stroke-width="null"/>
					</g>
					<g>
						<rect x="124.6" y="489.1" class="st4" width="6.1" height="16" fill="null" stroke="null" stroke-width="null"/>
						<rect x="134.7" y="489.1" class="st4" width="6.1" height="13.7" fill="null" stroke="null" stroke-width="null"/>
						<rect x="121.6" y="504.9" class="st4" width="12.1" height="5.1" fill="null" stroke="null" stroke-width="null"/>
						<rect x="131.1" y="502.8" class="st4" width="12.1" height="5.1" fill="null" stroke="null" stroke-width="null"/>
					</g>
					<g>
						<rect x="86.8" y="489.1" class="st4" width="6.1" height="16" fill="null" stroke="null" stroke-width="null"/>
						<rect x="96.9" y="489.1" class="st4" width="6.1" height="13.7" fill="null" stroke="null" stroke-width="null"/>
						<rect x="83.8" y="504.9" class="st4" width="12.1" height="5.1" fill="null" stroke="null" stroke-width="null"/>
						<rect x="93.4" y="502.8" class="st4" width="12.1" height="5.1" fill="null" stroke="null" stroke-width="null"/>
					</g>
					<g>
						<rect x="49.1" y="489.1" class="st4" width="6.1" height="16" fill="null" stroke="null" stroke-width="null"/>
						<rect x="59.2" y="489.1" class="st4" width="6.1" height="13.7" fill="null" stroke="null" stroke-width="null"/>
						<rect x="46" y="504.9" class="st4" width="12.1" height="5.1" fill="null" stroke="null" stroke-width="null"/>
						<rect x="55.6" y="502.8" class="st4" width="12.1" height="5.1" fill="null" stroke="null" stroke-width="null"/>
					</g>
					<g>
						<rect x="11.3" y="489.1" class="st4" width="6.1" height="16" fill="null" stroke="null" stroke-width="null"/>
						<rect x="21.4" y="489.1" class="st4" width="6.1" height="13.7" fill="null" stroke="null" stroke-width="null"/>
						<rect x="8.3" y="504.9" class="st4" width="12.1" height="5.1" fill="null" stroke="null" stroke-width="null"/>
						<rect x="17.8" y="502.8" class="st4" width="12.1" height="5.1" fill="null" stroke="null" stroke-width="null"/>
					</g>
				</g>
				<polyline class="st5" points="1.4,485.6 2.2,485.6 15.6,485.6 16.3,485.6 16.4,485.6 16.4,485.6 21,485.6 27.3,485.6       32.3,485.6 40,485.6 47.4,485.6 50.3,485.6 50.4,485.6 50.6,485.6 92.8,485.6 114,485.6 116.7,485.6 116.9,485.6 214.9,485.6       1026.2,485.6     " fill="null" stroke="null" stroke-width="null"/>
				<polygon class="st6" points="1026.2,487.7 1026.2,495.8 999.7,495.8 993.7,495.9 934.3,495.9 928.2,495.9 880.3,495.9       858.7,495.9 804.7,495.9 783.1,495.9 745.3,495.9 739.3,495.9 691.4,495.9 669.8,495.9 615.8,495.9 594.2,495.9 546.3,495.9       540.2,495.9 502.5,495.9 480.9,495.9 426.9,495.9 405.3,495.9 357.4,495.9 351.3,496 291.9,496 285.9,496 238,496 216.4,496       162.4,496 140.8,496 96.9,496 92.9,496 40,496 32.2,496 2.2,496 2.2,487.9 32.3,487.9 40,487.9 50.6,487.9 114,487.8       116.9,487.8 214.9,487.8     " fill="null" stroke="null" stroke-width="null"/>
			</g>
			<path class="st2" d="M937.7,539.9h-0.9c-0.7-0.9-0.1-2.8,1.2-2.8c0,0,0-0.1,0-0.1C938.8,537.8,938.9,539.5,937.7,539.9z" fill="null" stroke="null" stroke-width="null"/>
			<path class="st2" d="M937.7,539.9h-0.9c-0.7-0.9-0.1-2.8,1.2-2.8c0,0,0-0.1,0-0.1C938.8,537.8,938.9,539.5,937.7,539.9z" fill="null" stroke="null" stroke-width="null"/>
			<g>
				<polygon points="232.9,505 220.8,482.5 244.3,487.7 251,504.2     " fill="null" stroke="null" stroke-width="null"/>
				<ellipse class="st7" cx="458.8" cy="596.5" rx="289.7" ry="2.3" fill="null" stroke="null" stroke-width="null"/>
				<polygon class="st8" points="176.6,559.3 208.4,595 687.3,595 721.3,559.5     " fill="null" stroke="null" stroke-width="null"/>
				<polygon points="645.9,545.1 641,475 324,499 244,504.2 224.4,507.6 233.2,529.4 223.9,547.9     " fill="null" stroke="null" stroke-width="null"/>
				<path class="st9" d="M392.3,474.3l-20.6-1.1c0,0-128.3,22.2-160.3-4.5l5.5,14.9C216.9,483.6,267.6,509.9,392.3,474.3z" fill="null" stroke="null" stroke-width="null"/>
				<path class="st10" d="M371.7,473.2c-106.7,33.1-195.5-0.5-145.6-9C295.3,452.4,371.7,473.2,371.7,473.2z" fill="null" stroke="null" stroke-width="null"/>
				<path class="st11" d="M370.2,473.8c-119.5,27.7-167.5-6.1-121.4-8.2C303.9,463.2,370.2,473.8,370.2,473.8z" fill="null" stroke="null" stroke-width="null"/>
				<path class="st9" d="M371.1,473.4c8.4-0.7,236.1-63.5,283.7-39.1c39.4,20.2-15.7,64.7-15.7,64.7l-141.8-3.3L371.1,473.4      L371.1,473.4z" fill="null" stroke="null" stroke-width="null"/>
				<polygon class="st12" points="216.8,459.6 234.5,462.1 238.7,467.2 219.7,465.4 216.4,466.7     " fill="null" stroke="null" stroke-width="null"/>
				<polygon class="st12" points="237.6,462.5 237.3,456 239.8,455.6 251,457.5 255,464.3 239.9,462.2     " fill="null" stroke="null" stroke-width="null"/>
				<polygon class="st12" points="261.3,460.7 261.3,455 263.7,454.7 272.2,456.3 276.4,462.1 263.4,460.6     " fill="null" stroke="null" stroke-width="null"/>
				<polygon class="st12" points="293.7,461.2 293.7,455.8 305.4,460.2 304.9,465.1 296.3,461.4     " fill="null" stroke="null" stroke-width="null"/>
				<polygon class="st12" points="331.4,461.6 331.4,465.7 340,469 340,465.1     " fill="null" stroke="null" stroke-width="null"/>
				<path d="M235.8,489.5c0,0,40,5.5,78.1,0.6c65.2-8.4,281.5-69.5,329.9-47.1c27.8,12.9-5.5,50.6-5.5,50.6l-392.3,11.7L235.8,489.5      L235.8,489.5z" fill="null" stroke="null" stroke-width="null"/>
				<g>
					<g>
						<polygon class="st12" points="232.9,472 227.9,467.2 209.4,465.9 229.4,532.1 222.8,547.8 230.9,547.8 237.2,533.3         233.2,529.4 234.9,523.5 229.3,510.3 224.4,507.6 226.8,500.5 220.5,486.2 213.9,474.7 212,470.8       " fill="null" stroke="null" stroke-width="null"/>
						<polygon class="st12" points="674.8,446.6 650.2,523.6 660.4,541.3 653.3,541.3 645.4,527.8 648.2,524.1 646.8,517.7         649.9,506.1 655.3,501.3 654.5,495.7 652.2,496 666.6,446.9       " fill="null" stroke="null" stroke-width="null"/>
						<polygon class="st12" points="659.2,436.7 669.7,433.1 643.3,525.9 653.3,541.3 644.3,541.3 634.4,527.5 639.5,523.3         637.8,515.7 640.9,504.7 647.1,499.3 645.2,490.6 645.2,479.3       " fill="null" stroke="null" stroke-width="null"/>
						<polygon class="st12" points="237,483.4 234.6,479.5 224.6,476.3 238.4,529.7 230.9,547.8 240.8,547.8 248.2,533.2         243.2,529.4 244.3,521.4 240.5,509.6 236.1,506.4 235.8,497.5 230.9,482.4       " fill="null" stroke="null" stroke-width="null"/>
						<polygon class="st12" points="247,479.2 257.3,528.2 250.8,546.8 259.1,546.8 266.5,532.6 263.5,527.3 263.2,518.5         261.1,507.8 255.6,503.4 256.1,494.3 252.9,486.1 255.2,486.3 253.5,482.5       " fill="null" stroke="null" stroke-width="null"/>
						<polygon class="st12" points="283.3,486.3 280.9,478.6 277.1,478.9 286.2,526.4 280,547.1 288,547.1 295.7,531.1 292.1,525.2         292.7,517.9 289.5,504.3 285.9,500.2 286.5,492.5       " fill="null" stroke="null" stroke-width="null"/>
						<polygon class="st12" points="325.5,483 318.7,474.8 315.7,474.2 324,525.8 317.8,545.3 325.5,545.3 332.2,528.5 330.2,523.8         330.5,514.9 328.4,503.4 324,499 325.2,491 321.9,483.9       " fill="null" stroke="null" stroke-width="null"/>
						<polygon class="st12" points="379.6,471.5 365.1,466.3 361.7,466.8 367,526.1 365,545.3 370.9,545.3 375,528.2 374.1,522.6         374.4,514 372,501.6 369.7,497.5 371.2,487.2 366.9,474.6       " fill="null" stroke="null" stroke-width="null"/>
						<polygon class="st12" points="413.4,455.3 417.5,455.6 422.5,460.9 418.4,462.4 421.9,513.7 420.4,544.4 415.4,544.4               " fill="null" stroke="null" stroke-width="null"/>
						<polygon class="st12" points="464.1,450.9 468.8,444.1 471.5,443.5 471.5,543.2 464.9,543.2 464.1,526.7 467.6,450.9               " fill="null" stroke="null" stroke-width="null"/>
						<path class="st12" d="M512.5,440.6c0.9-0.3,12.1-8.5,12.1-8.5l2.7-0.3l-8.3,93.8l5.5,17.3l-6.8,0.1l-6.9-15.7l9.7-87        L512.5,440.6L512.5,440.6z" fill="null" stroke="null" stroke-width="null"/>
						<polygon class="st12" points="562,432.3 574.1,425 577,425 561.4,521.7 569.2,542.8 562,542.5 552.3,525.8 556.1,518.2         553.7,512.2 556.4,500.2 559.9,496.3 558.8,487.2 569.4,432.3       " fill="null" stroke="null" stroke-width="null"/>
						<path class="st12" d="M602.4,428.5c0.9-0.3,12.7-6.2,12.7-6.2l3-0.3l-19.8,102.1l7.7,17.7h-8.3l-10.3-14.5l4.7-5l-0.3-9.7        l1.2-10.3l4.1-4.4l-0.3-9.7l13.9-59.6L602.4,428.5L602.4,428.5z" fill="null" stroke="null" stroke-width="null"/>
						<polygon class="st12" points="638.1,429.7 648.7,425.5 650.8,425.5 626.6,524 636,542.6 628.7,542.6 615.4,527.6 621,522         619.5,515.2 621.9,503.7 627.5,498.7 626.6,489.5 643.4,430.5       " fill="null" stroke="null" stroke-width="null"/>
					</g>
					<polygon class="st12" points="234.9,523.5 237.3,524.6 244.3,521.4 247.3,523.2 256.1,522.6 263.2,518.5 269.1,520.5        280.3,520.2 284.2,517.6 292.7,517.9 298.9,518.7 315.4,518.7 322.8,515.6 330.2,515 338.1,517.6 358.2,517 365.9,514.3        374.4,514 381.5,515.8 405.4,516.1 414.8,512.8 421.8,512.7 430.5,514.9 455.2,515.2 464.7,511.4 471.3,511 478.4,514.7        502.1,514.9 512.7,511.9 519.4,512 526.9,515.5 546.7,515.5 553.7,512.2 562.9,512.5 567.9,515.2 585.3,514.9 591.8,512.5        600.3,513.4 603,516.1 614.2,516.1 619.5,515.2 628.7,517.3 634.6,517.6 637.8,515.7 646.8,517.7 648.2,524.1 645.4,527.8        634.4,527.5 630.7,525.2 626.6,524 615.4,527.6 612.1,524.6 598.3,524 587.4,527.3 581.8,524.3 565,524 562.9,525.8        552.3,525.8 545.8,523.4 526.3,523.2 518.9,525.5 511.1,527.5 502.1,524 478.2,524 471,526.9 464.1,526.7 455.7,523.2        433.1,523.5 420.8,528 415.1,527.9 407.7,524.9 382.4,524.9 375,528.2 366.7,528.5 361.1,525.8 341.7,525.8 332.2,528.5        323.1,528.5 318.4,527.6 302.5,528.2 295.7,531.1 284.8,529.1 274.7,528.8 266.5,532.6 256.4,530.2 251.7,530.2 248.2,533.2        237.2,533.3 233.2,529.4      " fill="null" stroke="null" stroke-width="null"/>
					<polygon class="st12" points="226.8,500.5 224.4,507.6 229.3,510.3 230.7,509.1 232.7,508.6 240.5,509.6 244,507.3 250,506.2        253.1,507.3 261.1,507.8 265.7,504.6 276.1,503.9 281.9,504.6 289.6,505.5 295.6,502 309.3,501.3 320.2,503.9 328.4,503.4        336,500.2 356.3,499.7 364.6,502.2 372,501.6 381.6,498.1 404.5,497.8 414.6,501.3 421.1,501.3 429.3,498 455.1,497.7        465.6,500.2 472.1,499.9 481,496.6 502.1,496.2 513.7,498.8 521.1,499.3 531.2,496.7 546.5,496.6 556.4,500.2 564.9,500.8        572.3,498.6 586.7,499.1 593,502.2 601.8,502.6 604.4,499.7 617.9,499.7 621.9,503.7 631.9,501.5 637.8,501.3 640.9,504.7        649.9,506.1 655.3,501.3 654.5,495.7 646.5,478.1 645.1,479.2 637.8,493.1 633.9,492.9 626.6,489.5 618.4,492.2 606.7,491.8        603.9,488.7 596.8,488.1 589.1,490.9 574.2,491.1 566.9,487.8 558.8,487.2 549.9,489.8 530.4,490.2 522.2,486.9 515.1,486.2        503.6,489.6 481.3,490.3 471,486.4 465.4,486.2 454.6,489.6 429.9,490.1 420,486.3 414.6,486.7 403.5,490.7 380.9,490.9        371.2,487.2 363.4,488.4 355.4,492.8 334.9,492.9 325.2,491 317.8,491.5 308.5,494.9 295.8,495.5 286.5,492.5 279.2,493.1        272.1,497.3 263,497.7 256.1,494.3 250.2,494.2 250.6,496.9 246.8,499.5 239.8,500.2 235.8,497.5 231.1,501.7 228.5,502             " fill="null" stroke="null" stroke-width="null"/>
				</g>
				<polygon class="st13" points="177.6,555.6 223.9,546.1 659.9,541 720.2,555.9     " fill="null" stroke="null" stroke-width="null"/>
				<rect x="176.7" y="555.6" class="st14" width="544.7" height="5.1" fill="null" stroke="null" stroke-width="null"/>
			</g>
			<g>
				<polygon class="st7" points="290,636 50.4,670.5 2.2,639.4 2.2,630.3 12,631.5 17.1,632 27.4,633.2 31.8,633.7 40,634.6       42.7,634.9 49.7,634.9 49.8,634.9 50.8,634.9 62.9,634.8 63,634.8 183.8,634.2 207.9,634.6     " fill="null" stroke="null" stroke-width="null"/>
				<g>
					<line class="st15" x1="126.7" y1="279.9" x2="126.8" y2="314.1"/>
					<line class="st15" x1="149.4" y1="279" x2="149.4" y2="309.3"/>
				</g>
				<polygon class="st16" points="117.8,314.2 117.8,346.4 137.1,348.1 137.4,304.7     " fill="null" stroke="null" stroke-width="null"/>
				<polygon class="st17" points="207.9,607.8 207.9,638 52.4,661.9 17.1,640.1 17.1,618.2     " fill="null" stroke="null" stroke-width="null"/>
				<polygon class="st18" points="137.1,348.1 203.2,354.1 203.2,313.6 137.7,304.6 137.4,304.7     " fill="null" stroke="null" stroke-width="null"/>
				<polygon class="st19" points="49.9,335 50.9,635.4 52.4,636.2 214.9,614.9 214.8,349.6 50.3,334.9     " fill="null" stroke="null" stroke-width="null"/>
				<polygon class="st16" points="16.3,344.3 16.4,618.2 50.9,635.4 49.9,335     " fill="null" stroke="null" stroke-width="null"/>
				<polygon class="st20" points="39.9,337.7 40.1,630.4 50.9,635.4 49.8,335     " fill="null" stroke="null" stroke-width="null"/>
				<g>
					<polygon points="27.4,646.5 27.2,341.3 32.7,339.7 31.8,649.3      " fill="null" stroke="null" stroke-width="null"/>
					<polygon class="st18" points="1.3,359.3 1.3,368.1 8.1,368.1 17,378.1 17.1,378.2 40,378.1 40,369.3 17,369.3 8,359.2      " fill="null" stroke="null" stroke-width="null"/>
					<polygon class="st18" points="1.3,382.8 1.3,391.7 8.1,391.7 17.1,401.7 17.1,401.7 40,401.7 40,392.9 17.1,392.9 8,382.8             " fill="null" stroke="null" stroke-width="null"/>
					<polygon class="st18" points="1.3,406.4 1.3,415.3 8.1,415.3 17.1,425.3 17.1,425.3 40,425.3 40,416.4 17.1,416.4 8,406.4             " fill="null" stroke="null" stroke-width="null"/>
					<polygon class="st18" points="1.3,430 1.3,438.9 8.1,438.9 17.1,448.9 17.1,448.9 40,448.9 40,440 17.1,440 8,430      " fill="null" stroke="null" stroke-width="null"/>
					<polygon class="st18" points="1.3,453.6 1.3,462.5 8.1,462.5 17.1,472.5 17.1,472.5 40,472.5 40,463.6 17.1,463.6 8,453.6             " fill="null" stroke="null" stroke-width="null"/>
					<polygon class="st21" points="16.1,462.5 16.4,462.8 16.4,453.6      " fill="null" stroke="null" stroke-width="null"/>
					<polygon class="st18" points="1.4,477.2 1.4,486.1 8.1,486 17.1,496 17.1,496.1 40,496.1 40,487.2 17.1,487.2 8.1,477.2             " fill="null" stroke="null" stroke-width="null"/>
					<polygon class="st18" points="40,519.7 32.2,519.7 27.3,519.7 17.1,519.7 17.1,519.6 16.4,518.8 8.4,510 8.3,509.8 8.1,509.6        1.4,509.6 1.4,500.8 2.2,500.8 8.1,500.8 11.3,504.3 11.8,504.9 12.1,505.2 12.1,505.2 16.1,509.6 16.4,509.9 16.4,509.9        16.4,510 16.4,510 17.1,510.8 27.3,510.8 32.2,510.8 40,510.8      " fill="null" stroke="null" stroke-width="null"/>
					<polygon class="st18" points="40,543.2 32.1,543.2 27.3,543.2 17.2,543.2 17.1,543.2 16.4,542.4 9.3,534.5 8.7,533.9        8.1,533.2 2.2,533.2 1.4,533.2 1.4,524.3 8.1,524.3 15.8,532.9 16.1,533.2 16.4,533.5 16.4,533.5 16.4,533.5 16.4,533.6        16.7,533.9 17.1,534.4 27.3,534.3 32.1,534.3 40,534.3 40,534.3 40,534.5      " fill="null" stroke="null" stroke-width="null"/>
					<polygon class="st18" points="40.1,557.9 40.1,566.8 32,566.8 27.3,566.8 17.2,566.8 17.1,566.8 16.4,566 8.1,556.8 2.2,556.8        1.4,556.8 1.4,547.9 8.1,547.9 16.1,556.8 16.4,557.1 16.4,557.1 16.5,557.2 17.2,557.9 27.3,557.9 32,557.9      " fill="null" stroke="null" stroke-width="null"/>
					<polygon class="st18" points="40.1,590.4 30.1,590.4 27.3,590.4 17.2,590.4 17.2,590.4 16.4,589.5 8.2,580.4 1.4,580.4        1.4,571.5 2.2,571.5 8.1,571.5 16.1,580.4 16.4,580.7 16.5,580.7 17.2,581.5 27.3,581.5 32,581.5 40.1,581.5      " fill="null" stroke="null" stroke-width="null"/>
					<polygon class="st18" points="40.1,614 31.9,614 27.4,614 17.2,614 17.2,614 16.4,613.1 8.2,604 1.4,604 1.4,595.1 2.2,595.1        8.1,595.1 16.1,604 16.4,604.2 16.4,604.2 16.5,604.3 17.2,605.1 27.3,605.1 31.9,605.1 40,605.1 40.1,605.1      " fill="null" stroke="null" stroke-width="null"/>
					<polygon class="st18" points="40,628.2 40,637.1 31.8,637.1 27.4,637.2 17.1,637.2 17.1,637.1 17.1,637.1 12,631.5 8.1,627.1        1.4,627.1 1.4,618.2 2.2,618.2 8.1,618.2 16.1,627.1 16.4,627.4 17.1,628.2 17.1,628.3 27.4,628.3 31.8,628.3 36.5,628.2             " fill="null" stroke="null" stroke-width="null"/>
					<g>
						<polygon points="8,359.2 16,368.1 16.4,368.5 16.4,359.2       " fill="null" stroke="null" stroke-width="null"/>
						<polygon points="40,378.1 30,390.1 30,378.2       " fill="null" stroke="null" stroke-width="null"/>
						<path d="M27.2,387.2l-5.1-9.1h5.1C27.2,378.2,27.2,387.3,27.2,387.2z" fill="null" stroke="null" stroke-width="null"/>
						<polygon points="16.3,362.5 16.3,368.4 17,369.3 22.5,369.3       " fill="null" stroke="null" stroke-width="null"/>
						<polygon points="8,382.8 16,391.7 16.4,392.1 16.4,382.8       " fill="null" stroke="null" stroke-width="null"/>
						<polygon points="40,401.7 30,413.7 30,401.7       " fill="null" stroke="null" stroke-width="null"/>
						<path d="M27.2,410.8l-5.1-9.1h5.1C27.2,401.7,27.2,410.9,27.2,410.8z" fill="null" stroke="null" stroke-width="null"/>
						<polygon points="16.3,386.1 16.3,392 17.1,392.9 22.5,392.9       " fill="null" stroke="null" stroke-width="null"/>
						<polygon points="8,406.4 16,415.3 16.4,415.7 16.4,406.4       " fill="null" stroke="null" stroke-width="null"/>
						<polygon points="40,425.3 30,437.3 30,425.3       " fill="null" stroke="null" stroke-width="null"/>
						<path d="M27.2,434.4l-5.1-9.1h5.1C27.2,425.3,27.2,434.5,27.2,434.4z" fill="null" stroke="null" stroke-width="null"/>
						<polygon points="16.3,409.7 16.3,415.6 17.1,416.4 22.5,416.4       " fill="null" stroke="null" stroke-width="null"/>
						<polygon points="8,430 16.1,438.9 16.4,439.2 16.4,430       " fill="null" stroke="null" stroke-width="null"/>
						<polygon points="40,448.9 30,460.9 30,448.9       " fill="null" stroke="null" stroke-width="null"/>
						<path d="M27.3,458l-5.1-9.1h5.1C27.3,448.9,27.3,458,27.3,458z" fill="null" stroke="null" stroke-width="null"/>
						<polygon points="16.3,433.3 16.3,439.2 17.1,440 22.5,440       " fill="null" stroke="null" stroke-width="null"/>
						<polygon points="40.1,472.5 30,484.5 30.1,472.5       " fill="null" stroke="null" stroke-width="null"/>
						<path d="M27.3,481.5l-5.1-9.1h5.1C27.3,472.5,27.3,481.6,27.3,481.5z" fill="null" stroke="null" stroke-width="null"/>
						<polygon points="16.3,456.9 16.3,462.8 17.1,463.6 22.5,463.6       " fill="null" stroke="null" stroke-width="null"/>
						<polygon points="8.1,477.2 16.1,486 16.4,486.4 16.4,477.2       " fill="null" stroke="null" stroke-width="null"/>
						<polygon points="40.1,496.1 30,508 30.1,496.1       " fill="null" stroke="null" stroke-width="null"/>
						<path d="M27.3,505.1l-5.1-9.1h5.1C27.3,496.1,27.3,505.2,27.3,505.1z" fill="null" stroke="null" stroke-width="null"/>
						<polygon points="16.3,480.4 16.3,486.3 17.1,487.2 22.5,487.2       " fill="null" stroke="null" stroke-width="null"/>
						<polygon points="8.1,500.8 16.1,509.6 16.4,510 16.4,500.8       " fill="null" stroke="null" stroke-width="null"/>
						<polygon points="40.1,519.7 30,531.6 30.1,519.7       " fill="null" stroke="null" stroke-width="null"/>
						<path d="M27.3,528.7l-5.1-9.1h5.1C27.3,519.7,27.3,528.8,27.3,528.7z" fill="null" stroke="null" stroke-width="null"/>
						<polygon points="16.4,504 16.4,509.9 17.1,510.8 22.5,510.8       " fill="null" stroke="null" stroke-width="null"/>
						<polygon points="8.1,524.3 16.1,533.2 16.4,533.6 16.4,524.3       " fill="null" stroke="null" stroke-width="null"/>
						<polygon points="40.1,543.2 30.1,555.2 30.1,543.2       " fill="null" stroke="null" stroke-width="null"/>
						<path d="M27.3,552.3l-5.1-9.1h5.1C27.3,543.2,27.3,552.4,27.3,552.3z" fill="null" stroke="null" stroke-width="null"/>
						<polygon points="16.4,527.6 16.4,533.5 17.1,534.4 22.5,534.3       " fill="null" stroke="null" stroke-width="null"/>
						<polygon points="8.1,547.9 16.1,556.8 16.5,557.2 16.5,547.9       " fill="null" stroke="null" stroke-width="null"/>
						<polygon points="40.1,566.8 30.1,578.8 30.1,566.8       " fill="null" stroke="null" stroke-width="null"/>
						<path d="M27.3,575.9l-5.1-9.1h5.1C27.3,566.8,27.3,576,27.3,575.9z" fill="null" stroke="null" stroke-width="null"/>
						<polygon points="16.4,551.2 16.4,557.1 17.2,557.9 22.6,557.9       " fill="null" stroke="null" stroke-width="null"/>
						<polygon points="8.1,571.5 16.1,580.4 16.5,580.7 16.5,571.5       " fill="null" stroke="null" stroke-width="null"/>
						<polygon points="40.1,590.4 30.1,602.4 30.1,590.4       " fill="null" stroke="null" stroke-width="null"/>
						<path d="M27.3,599.5l-5.1-9.1h5.1C27.3,590.4,27.3,599.5,27.3,599.5z" fill="null" stroke="null" stroke-width="null"/>
						<polygon points="16.4,574.8 16.4,580.7 17.2,581.5 22.6,581.5       " fill="null" stroke="null" stroke-width="null"/>
						<polygon points="8.1,595.1 16.1,604 16.5,604.3 16.5,595.1       " fill="null" stroke="null" stroke-width="null"/>
						<polygon points="40.2,614 30.1,626 30.1,614       " fill="null" stroke="null" stroke-width="null"/>
						<path d="M27.4,623l-5.1-9.1h5.1C27.4,614,27.4,623.1,27.4,623z" fill="null" stroke="null" stroke-width="null"/>
						<polygon points="16.4,598.3 16.4,604.2 17.2,605.1 22.6,605.1       " fill="null" stroke="null" stroke-width="null"/>
						<polygon points="8.1,618.2 16.1,627.1 17,628.1 17.1,618.2       " fill="null" stroke="null" stroke-width="null"/>
						<polygon points="16.4,621.5 16.4,627.4 17.1,628.3 22.5,628.3       " fill="null" stroke="null" stroke-width="null"/>
						<polygon points="16.4,453.6 8,453.6 16.1,462.5       " fill="null" stroke="null" stroke-width="null"/>
					</g>
				</g>
				<g>
					<polygon class="st22" points="50,379.7 50.1,408.1 116.6,411.1 116.6,384.5      " fill="null" stroke="null" stroke-width="null"/>
					<polygon class="st23" points="50.1,414.3 50.2,428.9 116.7,430.5 116.7,417.3      " fill="null" stroke="null" stroke-width="null"/>
					<polygon class="st22" points="50.2,435.1 50.2,447.9 116.7,449.5 116.7,436.7      " fill="null" stroke="null" stroke-width="null"/>
					<polygon class="st23" points="50.8,606.1 50.9,635.4 52.4,636.2 116.8,627.8 116.8,603.1      " fill="null" stroke="null" stroke-width="null"/>
					<polygon class="st22" points="50.6,549.2 50.6,561.9 116.7,560.2 116.7,548.2      " fill="null" stroke="null" stroke-width="null"/>
					<polygon class="st23" points="50.5,529.9 50.6,543 50.6,549.2 116.7,548.2 116.7,528.8      " fill="null" stroke="null" stroke-width="null"/>
					<polygon class="st23" points="50.6,568.2 50.7,582.5 50.7,588 116.7,585 116.7,566.4      " fill="null" stroke="null" stroke-width="null"/>
					<polygon class="st22" points="50.7,588 50.7,600.5 50.8,606.1 116.8,603.1 116.7,585      " fill="null" stroke="null" stroke-width="null"/>
					<polygon class="st22" points="50.5,512.5 50.5,523.7 116.7,522.6 116.7,511.5      " fill="null" stroke="null" stroke-width="null"/>
					<polygon class="st23" points="50.4,491.4 50.4,506.3 116.7,505.2 116.7,492      " fill="null" stroke="null" stroke-width="null"/>
					<polygon class="st22" points="50.3,473.7 50.4,485.2 116.7,485.8 116.7,474.3      " fill="null" stroke="null" stroke-width="null"/>
					<polygon class="st23" points="50.3,454.1 50.3,467.5 116.7,468.1 116.7,455.7      " fill="null" stroke="null" stroke-width="null"/>
					<g>
						<polygon class="st16" points="49.9,349.3 50,356.5 214.8,368.4 214.8,362.6       " fill="null" stroke="null" stroke-width="null"/>
						<polygon class="st16" points="50,356.5 50,372.5 214.8,384.4 214.8,368.4       " fill="null" stroke="null" stroke-width="null"/>
						<polygon class="st16" points="116.6,384.5 116.6,411.1 214.8,415.5 214.8,391.6       " fill="null" stroke="null" stroke-width="null"/>
						<polygon class="st16" points="116.7,436.7 116.7,449.5 214.9,451.8 214.8,439       " fill="null" stroke="null" stroke-width="null"/>
						<polygon class="st16" points="116.7,455.7 116.7,468.1 214.9,469 214.9,458       " fill="null" stroke="null" stroke-width="null"/>
						<polygon class="st16" points="116.7,474.3 116.7,485.8 214.9,486.8 214.9,475.3       " fill="null" stroke="null" stroke-width="null"/>
						<polygon class="st16" points="116.7,492 116.7,505.2 214.9,503.7 214.9,493       " fill="null" stroke="null" stroke-width="null"/>
						<polygon class="st16" points="116.7,511.5 116.7,522.6 214.9,521.1 214.9,509.9       " fill="null" stroke="null" stroke-width="null"/>
						<polygon class="st16" points="116.7,528.8 116.7,542 214.9,540.4 214.9,527.3       " fill="null" stroke="null" stroke-width="null"/>
						<polygon class="st16" points="116.7,548.2 116.7,560.2 214.9,557.5 214.9,546.6       " fill="null" stroke="null" stroke-width="null"/>
						<polygon class="st16" points="116.7,566.4 116.7,579.5 214.9,575 214.9,563.8       " fill="null" stroke="null" stroke-width="null"/>
						<polygon class="st16" points="116.8,603.1 116.8,627.8 214.9,614.9 214.9,598.6       " fill="null" stroke="null" stroke-width="null"/>
						<polygon class="st16" points="116.7,579.5 116.8,597.5 214.9,593 214.9,575       " fill="null" stroke="null" stroke-width="null"/>
						<polygon class="st16" points="116.7,417.3 116.7,430.5 214.8,432.8 214.8,421.7       " fill="null" stroke="null" stroke-width="null"/>
					</g>
					<polygon class="st22" points="50.1,385.6 50.1,391.8 116.7,396.4 116.7,390.2      " fill="null" stroke="null" stroke-width="null"/>
					<g>
						<polygon points="49.9,335 49.9,349.3 214.8,362.6 214.8,349.6 50.3,334.9       " fill="null" stroke="null" stroke-width="null"/>
						<polygon points="50,372.5 50,379.7 116.6,384.5 214.8,391.6 214.8,384.4       " fill="null" stroke="null" stroke-width="null"/>
						<polygon points="116.6,411.1 116.7,417.3 214.8,421.7 214.8,415.5       " fill="null" stroke="null" stroke-width="null"/>
						<polygon points="116.3,384.2 116.3,390.4 214.8,397.8 214.8,391.6       " fill="null" stroke="null" stroke-width="null"/>
						<polygon points="116.7,430.5 116.7,436.7 214.8,439 214.8,432.8       " fill="null" stroke="null" stroke-width="null"/>
						<polygon points="50.2,428.9 50.2,435.1 116.7,436.7 116.7,430.5       " fill="null" stroke="null" stroke-width="null"/>
						<polygon points="116.7,449.5 116.7,455.7 214.9,458 214.9,451.8       " fill="null" stroke="null" stroke-width="null"/>
						<polygon points="116.7,485.8 116.7,492 214.9,493 214.9,486.8       " fill="null" stroke="null" stroke-width="null"/>
						<polygon points="116.7,505.2 116.7,511.5 214.9,509.9 214.9,503.7       " fill="null" stroke="null" stroke-width="null"/>
						<polygon points="116.7,522.6 116.7,528.8 214.9,527.3 214.9,521.1       " fill="null" stroke="null" stroke-width="null"/>
						<polygon points="116.7,560.2 116.7,566.4 214.9,563.8 214.9,557.5       " fill="null" stroke="null" stroke-width="null"/>
						<polygon points="50.6,561.9 50.6,568.2 116.7,566.4 116.7,560.2       " fill="null" stroke="null" stroke-width="null"/>
						<polygon points="50.5,523.7 50.5,529.9 116.7,528.8 116.7,522.6       " fill="null" stroke="null" stroke-width="null"/>
						<polygon points="50.5,582.1 50.5,588.3 116.7,585.7 116.7,579.5       " fill="null" stroke="null" stroke-width="null"/>
						<polygon points="50.7,600.2 50.7,605.6 117.3,603 117.3,597.5       " fill="null" stroke="null" stroke-width="null"/>
						<polygon points="50.4,485.2 50.4,491.4 116.7,492 116.7,485.8       " fill="null" stroke="null" stroke-width="null"/>
						<polygon points="50.3,467.5 50.3,473.7 116.7,474.3 116.7,468.1       " fill="null" stroke="null" stroke-width="null"/>
						<polygon points="50.2,447.9 50.3,454.1 116.7,455.7 116.7,449.5       " fill="null" stroke="null" stroke-width="null"/>
						<polygon points="116.8,597.5 116.8,603.1 214.9,598.6 214.9,593       " fill="null" stroke="null" stroke-width="null"/>
						<polygon points="116.7,542 116.7,548.2 214.9,546.6 214.9,540.4       " fill="null" stroke="null" stroke-width="null"/>
						<polygon points="50.4,506.3 50.5,512.5 116.7,511.5 116.7,505.2       " fill="null" stroke="null" stroke-width="null"/>
						<polygon points="116.7,468.1 116.7,474.3 214.9,475.3 214.9,469       " fill="null" stroke="null" stroke-width="null"/>
						<polygon points="50.1,408.1 50.1,414.3 116.7,417.3 116.6,411.1       " fill="null" stroke="null" stroke-width="null"/>
						<polygon points="50.1,379.6 50.1,385.8 116.7,390.5 116.7,384.3       " fill="null" stroke="null" stroke-width="null"/>
						<polygon points="116.7,579.4 116.7,585 214.9,580.5 214.9,575       " fill="null" stroke="null" stroke-width="null"/>
						<polygon points="50.6,543.9 50.6,550.1 116.7,548.3 116.7,542.1       " fill="null" stroke="null" stroke-width="null"/>
						<polygon points="117.1,383.9 116.8,627.8 113.8,628.2 114.1,383.5       " fill="null" stroke="null" stroke-width="null"/>
					</g>
				</g>
				<polygon class="st24" points="50.3,334.9 50.9,635.4 46.7,633.3 48.1,335.5     " fill="null" stroke="null" stroke-width="null"/>
			</g>
			<g>
				<polygon class="st7" points="776.7,619.1 609.3,615.7 728.6,579.7 832.4,581.6     " fill="null" stroke="null" stroke-width="null"/>
				<g>
					<polygon class="st25" points="639,557.3 671,546.4 804.4,544.4 772.6,562.2      " fill="null" stroke="null" stroke-width="null"/>
					<rect x="791.2" y="541.3" class="st26" width="5.8" height="10.3" fill="null" stroke="null" stroke-width="null"/>
					<rect x="737.1" y="548.5" class="st26" width="5.8" height="10.8" fill="null" stroke="null" stroke-width="null"/>
					<rect x="769.4" y="548.9" class="st26" width="5.8" height="10.3" fill="null" stroke="null" stroke-width="null"/>
					<rect x="705.5" y="548.1" class="st26" width="5.8" height="11.1" fill="null" stroke="null" stroke-width="null"/>
					<rect x="674" y="548.2" class="st26" width="5.8" height="11" fill="null" stroke="null" stroke-width="null"/>
					<rect x="639" y="563.4" class="st27" width="135.6" height="44.3" fill="null" stroke="null" stroke-width="null"/>
					<rect x="639" y="557.1" class="st14" width="135.6" height="6.4" fill="null" stroke="null" stroke-width="null"/>
					<polygon points="804.4,544.4 804.4,588 774.6,607.7 774.6,557      " fill="null" stroke="null" stroke-width="null"/>
					<polygon class="st28" points="781.9,563.2 781.9,591 774.6,595.6 774.6,566.4      " fill="null" stroke="null" stroke-width="null"/>
					<rect x="739.5" y="566.4" class="st29" width="35.2" height="29.2" fill="null" stroke="null" stroke-width="null"/>
					<polygon class="st30" points="769.4,552 775.3,552 775.3,549.7 769.4,549.6      " fill="null" stroke="null" stroke-width="null"/>
					<rect x="737.1" y="549.2" class="st30" width="5.8" height="2.4" fill="null" stroke="null" stroke-width="null"/>
					<rect x="705.5" y="548.9" class="st30" width="5.8" height="2.4" fill="null" stroke="null" stroke-width="null"/>
					<rect x="674" y="548.6" class="st30" width="5.8" height="2.4" fill="null" stroke="null" stroke-width="null"/>
					<polygon class="st30" points="797.1,542.2 797.1,544.7 791.2,547.4 791.2,544.7      " fill="null" stroke="null" stroke-width="null"/>
					<path d="M733.5,268.9l1.7,24h-5.1l2.6-24C732.6,268.9,732.7,268.9,733.5,268.9L733.5,268.9z" fill="null" stroke="null" stroke-width="null"/>
					<path class="st31" d="M719.5,355.5l24.4,1.7l-4.6-11.3c-0.3-0.9-0.5-1.8-0.6-2.8l-2.6-50.6h-8.1l-3.1,51.2       c0,0.7-0.2,1.5-0.6,2.1C723,348.5,719.6,355.4,719.5,355.5L719.5,355.5z" fill="null" stroke="null" stroke-width="null"/>
					<path d="M736,292.5l2.6,50.6c0,1,0.2,1.9,0.6,2.8l4.6,11.3l3.4,0.2l-5.2-12.5c-0.2-0.6-0.4-1.2-0.5-1.8l-3.9-50.2L736,292.5       L736,292.5L736,292.5z" fill="null" stroke="null" stroke-width="null"/>
					<polygon class="st31" points="670.4,381.5 670.9,544.5 780.3,544.5 780.4,544.5 780.4,381.5      " fill="null" stroke="null" stroke-width="null"/>
					<polygon points="780.2,381.5 780.2,544.5 802.5,536 803.2,390.5 780.9,381.5      " fill="null" stroke="null" stroke-width="null"/>
					<polygon class="st14" points="780.2,544.5 780.2,549.5 802.5,539.8 802.5,536      " fill="null" stroke="null" stroke-width="null"/>
					<polygon class="st14" points="671,544.5 671,548.5 779.8,549.7 780.2,549.5 780.2,544.5 780.1,544.5      " fill="null" stroke="null" stroke-width="null"/>
					<polygon points="784.1,378.1 784.1,373.4 777.5,371.1 777.5,375.9      " fill="null" stroke="null" stroke-width="null"/>
					<rect x="718.8" y="355" class="st29" width="24.1" height="8.8" fill="null" stroke="null" stroke-width="null"/>
					<rect x="718.8" y="363.8" class="st31" width="24.1" height="11.1" fill="null" stroke="null" stroke-width="null"/>
					<polygon points="742.9,355 742.9,363.8 743.1,363.8 748.5,366.5 748.5,357.9      " fill="null" stroke="null" stroke-width="null"/>
					<polygon points="742.9,363.8 742.9,375.5 748.5,375.5 748.5,366.5 743.1,363.8      " fill="null" stroke="null" stroke-width="null"/>
					<rect x="685.1" y="373.1" class="st29" width="92.3" height="4.1" fill="null" stroke="null" stroke-width="null"/>
					<polygon class="st14" points="670.6,377.1 670.6,382.8 780.2,381.5 780.2,375      " fill="null" stroke="null" stroke-width="null"/>
					<polygon class="st14" points="780.2,375 780.2,381.5 780.9,381.5 803.2,391.1 803.2,385.9      " fill="null" stroke="null" stroke-width="null"/>
					
						<rect x="685.1" y="371.7" transform="matrix(0.9999 -1.099544e-02 1.099544e-02 0.9999 -4.0538 8.0632)" class="st29" width="92.4" height="2" fill="null" stroke="null" stroke-width="null"/>
				</g>
			</g>
			<g>
				<path class="st7" d="M559.5,644.3c-1.8,0.1-5.1,0.3-9.1,0.3c-1.9,0-4.1,0-5.6,0.1c-0.7,0-1.2,0.1-2,0.1c-1.3,0-3.1,0-4.7,0.1      c-1.2,0-2.2,0-3.2,0.1c-5.1,0.2-5,0.4-9.8,0.6c-0.8,0-1.7,0.1-1.9,0.1c-0.4,0.1,0.8,0.1,1.9,0.2c3.9,0.2,2.8,0.3,6.7,0.4      c0.7,0,1.5,0.1,2.4,0.1c5.2,0.1,14.5,0,17.7,0.2c0.5,0,0.8,0.1,1.6,0.1c1,0,2.7,0,4.1,0l18.3,0c1.6,0,3.3,0,4.9,0      c1.7,0,3.4,0,4.9,0c2,0,3.3,0.1,5.2,0.1c5.3,0.1,11.1-0.2,16.9-0.1c1.4,0,2.6,0,4,0c2.7,0,5-0.1,7.7-0.1c6.2,0,13.4,0.2,18.5,0      c2.3-0.1,3.5-0.2,6.4-0.2c2.2,0,4.2,0,6.4,0c2.2,0,4.1,0,6.2-0.1c1.8,0,3.5,0,5.3,0c3.9,0,8,0,12,0c1.4-0.2-5.8-0.3-4.7-0.5      c0.6-0.1,3.4-0.2,2.7-0.2c-0.2,0-0.7,0-0.9-0.1c-0.9-0.1,0-0.2,0.5-0.2s-0.1-0.2-2.2-0.2c-0.9,0-1.8,0-2.6,0      c-7,0.1-14.8,0-20.2-0.2c-1.3,0-2.4-0.1-3.6-0.1l-4-0.2c3.1,0,3.1-0.2,0.5-0.3s-6.1-0.1-9.3-0.1c-0.6-0.1-5.3-0.2-9.1-0.2      c-3.8,0-7.8,0-11.4,0c-3.4,0-7.2-0.2-10-0.1c-0.7,0-1.2,0-2,0.1c-1.2,0-2.6,0-3.9,0c-3.8-0.1-8.5,0-11.6,0.1      c-4.4,0-8.6-0.1-13-0.1s-10.3,0-10.4,0.2" fill="null" stroke="null" stroke-width="null"/>
				<path class="st7" d="M383.7,644.2c-2.9,0-1.6,0.1-2.5,0.2s-1.1,0.2-2.8,0.2c-1.4,0-3.4,0.1-5.1,0.1c-3.7,0.1-5.2,0.2-3.5,0.3      c-4.9,0-9.8,0.1-11.4,0.2c-1.6,0.1,0.2,0.3,4.2,0.4c-3.7,0.2-3.7,0.5,0,0.7c1,0,2.2,0.1,2.6,0.2c0.5,0.1-0.8,0.2,0.2,0.2      c1.8,0.1,8.7,0.1,12.5,0.2c2.1,0,3.6,0.2,6.4,0.2c1.5,0,2.8,0,4.2,0c3.7,0,18.1,0.2,21.7,0.2c3.3,0,6.3-0.1,9.5-0.1      c2.1,0,4.3,0,6.5,0l31.6-0.1c1.9,0,4,0,5.6,0c1.1,0,2-0.1,3.2-0.1c3.5,0,6.9,0.1,10.7,0.1c3.9,0,7.4-0.1,10.7-0.1      c6.5-0.1,14.5-0.2,18.4-0.4c5.6-0.3-0.8-0.7-7-1l-16.7-0.8c-2-0.1-4.1-0.2-7.2-0.2c-2.9-0.1-6.5-0.1-10-0.1l-23.9-0.2      c-2.5,0-5.1,0-7.7,0c-2,0-3.9,0-5.8,0c-1.7,0-3.5,0-5.1,0c-8.1-0.1-23.8-0.2-37.4,0.1L383.7,644.2L383.7,644.2z" fill="null" stroke="null" stroke-width="null"/>
				<path class="st3" d="M455.8,619.9c0,0,1.8,20.5-0.8,22.3c-4.7,3.3-7.6,3.5-7.6,3.5h18.2c0,0-7.1-1.8-3.8-26.1L455.8,619.9      L455.8,619.9z" fill="null" stroke="null" stroke-width="null"/>
				<path class="st3" d="M411.3,619.9c0,0,1.8,20.5-0.8,22.3c-4.7,3.3-7.6,3.5-7.6,3.5h18.2c0,0-7.1-1.8-3.8-26.1L411.3,619.9      L411.3,619.9z" fill="null" stroke="null" stroke-width="null"/>
				<path class="st32" d="M375.4,547.3c-2.2,0.8-2.4,2.6-3.1,4.4c-0.7,1.8,0.3,3.5-1,4.9c-1,1.1-2.6,1.6-3.9,2.5      c-2.8,1.9-4,5.8-2.7,9c-3.7-0.3-7.5,2.2-8.7,5.7c-1.2,3.5,0.2,7.8,3.2,9.9c-2.8,5.3-2.8,12,0,17.3c0.8,1.4,1.7,2.7,2,4.3      c0.4,2.1-0.6,4.4,0.1,6.4c1.4,3.6,6.7,3.4,9.5,6c1.6,1.4,2.7,3.9,4.9,3.9c1.1,0,2.1-0.8,3.2-0.9c2.9-0.3,13.8,5.3,16.6,6      c2.5,0.6,4.9-1.5,7.3-2.5c1.6-0.6,3.3-0.8,5-0.9c8-0.7,16.1-1.4,24.1-2c1.5-0.1,3-0.3,4.3-1.1c0.9-0.6,1.5-1.5,2.5-1.9      c2.7-1.2,5.3,1.8,8.2,2.3c3,0.5,5.7-1.7,8.2-3.5c5-3.6,11.1-6.1,14-11.4c4.3-7.9-0.6-17.5-5.4-25.2L451,560.2      c-1.5-2.5-3.1-5-5.5-6.7c-2.2-1.6-5-2.3-7.7-3c-6.1-1.6-12.2-3.2-18.2-4.7c-1.9-0.5-3.9-1-5.9-0.9c-1.5,0.1-3,0.5-4.5,0.4      c-1.3,0-2.6-0.2-3.9-0.6c-6.2-1.6-18.2-5.5-28.6,1.7L375.4,547.3L375.4,547.3z" fill="null" stroke="null" stroke-width="null"/>
				<path class="st33" d="M442.5,548.2c-2.2,0.8-2.5,3.3-3.2,5.1s-0.9,3.9-2.1,5.3c-1,1.1-2.6,1.6-3.9,2.5c-1.8,1.2-3,3.3-3.2,5.4      c-0.2,1.8-1.3,3.4-3,4c-2.4,0.9-4.4,2.8-5.2,5.2c-1,2.8-0.3,6.2,1.6,8.5c0.9,1,1.1,2.4,0.6,3.7c-1.8,4.9-1.5,10.5,1,15.1      c0.8,1.4,1.7,2.7,2,4.3c0.4,2.1-0.6,4.4,0.1,6.4c1.4,3.6,6.7,3.4,9.5,6c1.6,1.4,2.7,3.9,4.9,3.9c1.1,0,2.1-0.8,3.2-0.9      c2.9-0.3,4.6,3.4,7.4,4c2.5,0.6,4.9-1.5,7.3-2.5c1.6-0.6,3.3-0.8,5-0.9c8-0.7,16.1-1.4,24.1-2c1.5-0.1,3-0.3,4.3-1.1      c0.9-0.6,1.5-1.5,2.5-1.9c2.7-1.2,5.3,1.8,8.2,2.3c3,0.5,5.7-1.7,8.2-3.5c4.9-3.6,11.1-6.1,14-11.4c4.3-7.9-0.6-17.5-5.4-25.2      l-12.7-20.4c-1.5-2.5-3.1-5-5.5-6.7c-2.2-1.6-5-2.3-7.7-3c-6.1-1.6-12.2-3.2-18.2-4.7c-1.9-0.5-3.9-1-5.9-0.9      c-1.5,0.1-3,0.5-4.5,0.4c-1.3,0-2.6-0.2-3.9-0.6c-6.2-1.6-9-3.5-19.4,3.6L442.5,548.2L442.5,548.2z" fill="null" stroke="null" stroke-width="null"/>
				<path class="st3" d="M631.3,644c0,0.6-5.7,1.1-11.6,1.7c4.5-0.3,11.9,0.2,16.3,0c0.3,0,0.6-0.1,0.8-0.3c0.1-0.2,0.1-0.4,0.1-0.5      c-0.2-7.1-0.3-26.4-0.4-33.6c-1.3,0-4.6,0-4.6,0s0.2,23.7,0.1,29.4c0,0.2,0,0.4-0.1,0.6c-0.1,0.3-0.4,0.4-0.6,0.6      c-0.8,0.5,0.3,1.7-0.5,2.2" fill="null" stroke="null" stroke-width="null"/>
				<path class="st34" d="M595.6,552.1c-1.8,4.1-5.1,7.5-9.1,9.4c-1.9,0.9-4.1,1.5-5.6,3.1c-0.7,0.7-1.2,1.6-2,2.3      c-1.3,1.1-3.1,1.2-4.7,1.8c-1.2,0.5-2.2,1.4-3.2,2.2c-5.1,4.3-5,11.2-9.8,15.8c-0.8,0.8-1.7,1.6-1.9,2.8      c-0.4,1.8,0.8,3.4,1.9,4.8c3.9,4.8,2.8,7.2,6.7,12.1c0.7,0.9,1.5,1.8,2.4,2.5c5.2,3.8,14.5,0,17.7,5.6c0.5,0.9,0.8,2,1.6,2.7      c1,1,2.7,1,4.1,0.9l18.3-0.9c1.6-0.1,3.3-0.2,4.9-0.3c1.7-0.1,3.4-0.3,4.9,0.3c2,0.8,3.3,2.7,5.2,3.6c5.3,2.5,11.1-4.1,16.9-3.2      c1.4,0.2,2.6,0.9,4,1c2.7,0.2,5-1.7,7.7-2.2c6.2-1.3,13.4,4.7,18.5,1c2.3-1.7,3.5-5.2,6.4-5.6c2.2-0.3,4.2,1.3,6.4,1.4      c2.2,0.1,4.1-1.4,6.2-1.6c1.8-0.2,3.5,0.5,5.3,1c3.9,1.2,4.1,1.2,7.3-0.9c2.3-4.6,0.8-5.4,0.5-10.3c-0.2-2.6,2.7-2.3,2.3-8.8      c0-0.7-0.7-1.2-0.9-1.8c-0.9-2,0-4.3,0.5-6.4s-0.1-5-2.2-5.5c-0.9-0.2-1.8,0.1-2.6,0.3c-7,1.8-4.4-6.9-13.5-9.9      c-4.8-1.6-6.2-1.6-9.1-2.7c-3.7-1.4-2.2-6.5-4.7-8.5c-2.5-2-6.1-2-9.3-1.9c-0.6-3.8-5.3-5.4-9.1-5.2c-3.8,0.2-7.8,1.5-11.4,0.2      c-3.4-1.1-7.2-4.2-10-2c-0.7,0.5-1.2,1.3-2,1.7c-1.2,0.5-2.6-0.3-3.9-0.8c-3.8-1.7-8.5-1-11.6,1.8c-4.4,0.6-8.6-1.9-13-2.8      c-4.4-0.9-10.3,1-10.4,5.4" fill="null" stroke="null" stroke-width="null"/>
				<path class="st7" d="M211.1,644.5c-1.3,0.1-3.8,0.2-6.8,0.3c-1.4,0-3.1,0-4.2,0.1c-0.5,0-0.9,0-1.5,0.1c-1,0-2.3,0-3.5,0      c-0.9,0-1.6,0-2.4,0.1c-3.8,0.1-3.7,0.3-7.3,0.5c-0.6,0-1.2,0-1.4,0.1c-0.3,0,0.6,0.1,1.4,0.1c2.9,0.1,2.1,0.2,5,0.3      c0.5,0,1.1,0,1.8,0.1c3.8,0.1,10.8,0,13.2,0.2c0.4,0,0.6,0.1,1.2,0.1c0.8,0,2,0,3,0l13.6,0c1.2,0,2.4,0,3.6,0c1.2,0,2.5,0,3.6,0      c1.5,0,2.4,0.1,3.9,0.1c4,0.1,8.2-0.1,12.6-0.1c1,0,2,0,3,0c2,0,3.8,0,5.7-0.1c4.6,0,10,0.1,13.8,0c1.7,0,2.6-0.2,4.8-0.2      c1.6,0,3.1,0,4.8,0c1.6,0,3,0,4.6,0c1.3,0,2.6,0,3.9,0c2.9,0,6,0,8.9,0c1-0.1-4.3-0.2-3.5-0.4c0.4-0.1,2.6-0.1,2-0.2      c-0.1,0-0.5,0-0.7,0c-0.6-0.1,0-0.1,0.4-0.2s0-0.1-1.6-0.2c-0.6,0-1.3,0-1.9,0c-5.2,0-11,0-15-0.1c-1,0-1.8-0.1-2.7-0.1l-3-0.1      c2.3,0,2.3-0.2,0.4-0.2s-4.5-0.1-6.9,0c-0.4-0.1-3.9-0.2-6.8-0.2c-2.9,0-5.8,0-8.5,0c-2.5,0-5.3-0.1-7.4-0.1c-0.5,0-0.9,0-1.4,0      c-0.9,0-1.9,0-2.9,0c-2.8,0-6.3,0-8.6,0c-3.3,0-6.4,0-9.7-0.1s-7.6,0-7.7,0.2" fill="null" stroke="null" stroke-width="null"/>
				<path class="st3" d="M230.6,644c0,0.6-5.7,1.1-11.6,1.7c4.4-0.3,11.9,0.2,16.3,0c0.3,0,0.6-0.1,0.8-0.3c0.1-0.2,0.1-0.4,0.1-0.5      c-0.1-7.1-0.3-26.4-0.4-33.6c-1.3,0-4.6,0-4.6,0s0.2,23.7,0.1,29.4c0,0.2,0,0.4-0.1,0.6c-0.1,0.3-0.4,0.4-0.6,0.6      c-0.9,0.5,0.3,1.7-0.6,2.2" fill="null" stroke="null" stroke-width="null"/>
				<path class="st32" d="M293.1,583c0.4-1,0.9-2,1.7-3.3c0.9-1.5,1.9-3.2,1.6-5.1c-0.2-1.2-0.9-2.1-1.6-2.9      c-3.9-4.9-3.9-12.1-8-16.7c-0.8-0.9-1.6-1.8-2.6-2.3c-1.2-0.7-2.7-0.8-3.8-1.9c-0.6-0.7-1-1.6-1.6-2.4c-1.2-1.6-3-2.3-4.5-3.3      c-3.3-2-5.9-5.6-7.4-9.9l0.1,0.8c0.1,0.5,0.2,1,0.2,1.6l-0.2-1.6c-1-3.6-5.1-5-8.2-4.1c-3.5,1-6.9,3.6-10.5,3      c-2.5-2.9-6.4-3.6-9.4-1.9c-1,0.6-2.1,1.4-3.1,0.8c-0.6-0.3-1-1.2-1.6-1.7c-2.3-2.3-5.3,1-8.1,2.1c-2.9,1.3-6.1,0-9.3-0.2      s-6.9,1.5-7.4,5.5c-2.6-0.2-5.5-0.2-7.5,2c-2,2.1-0.8,7.5-3.8,9c-2.4,1.2-3.5,1.2-7.4,2.9c-7.4,3.2-5.2,12.3-10.9,10.4      c-0.7-0.2-1.4-0.5-2.1-0.3c-1.7,0.5-2.1,3.5-1.8,5.8c0.4,2.2,1.1,4.6,0.4,6.7c-0.2,0.7-0.7,1.2-0.8,1.9c-0.4,6.9,2,6.5,1.8,9.3      c-0.3,5.1-1.5,6,0.4,10.8c2.1,1.7,2.6,2,4.3,1.5c0.8,2.3,1.1,4.4,3,7.5c0.6,0.9,1.1,1.8,1.8,2.5c4,3.8,11.2,0,13.7,5.6      c0.4,0.9,0.6,2,1.2,2.7c0.8,1,2,1,3.1,0.9c4.7-0.3,9.4-0.6,14.1-0.9c1.3-0.1,2.5-0.2,3.8-0.3c1.3-0.1,2.6-0.3,3.8,0.3      c1.5,0.8,2.6,2.7,4,3.6c4.1,2.5,8.6-4.1,13-3.2c1.1,0.2,2,0.9,3.1,1c2.1,0.2,3.9-1.7,5.9-2.2c4.8-1.3,10.3,4.7,14.3,1      c1.8-1.7,2.7-5.2,4.9-5.6c1.7-0.3,3.2,1.3,4.9,1.4c1.7,0.1,3.1-1.4,4.8-1.6c1.4-0.2,2.7,0.5,4.1,1c3,1.2,3.1,1.2,5.6-0.9      c1.8-4.6,0.6-5.4,0.4-10.3c-0.2-2.6,2.1-2.3,1.8-8.8c0-0.7-0.5-1.2-0.7-1.8c-0.7-2,0-4.3,0.4-6.4      C293.1,584.3,293.1,583.7,293.1,583L293.1,583z" fill="null" stroke="null" stroke-width="null"/>
				<path class="st34" d="M291.9,537.7l-0.2-1.6C291.8,536.6,291.9,537.1,291.9,537.7z" fill="null" stroke="null" stroke-width="null"/>
			</g>
			<g>
				<polygon class="st35" points="1026.3,743.4 633,737 557.8,763 1026.9,764     " fill="null" stroke="null" stroke-width="null"/>
				<rect x="625.8" y="680.4" class="st36" width="400.8" height="62.7" fill="null" stroke="null" stroke-width="null"/>
				<polygon class="st4" points="1026.6,618.2 1026.6,681.6 806.9,683.6     " fill="null" stroke="null" stroke-width="null"/>
				<path class="st35" d="M400.8,743.6L339.4,768l-42.7,0.2H296c-4,0-25.4,0-55.1-0.1h0c-85.8-0.1-235.4,0.2-239,0.3l0.2-18.7      L400.8,743.6z" fill="null" stroke="null" stroke-width="null"/>
				<polygon class="st36" points="610.9,738.2 561.7,739.8 561.7,739.8 552.4,740.2 534.9,740.7 534.8,740.7 460.4,743.2       383.2,745.7 383.2,745.7 383.2,745.7 370.2,746.2 370.2,746.2 370.1,746.2 370.1,746.2 2.1,750.7 2.2,749.8 2.2,693.5       604.2,682.9 604.7,695.4 605.1,698.4 607.9,717.7 608.6,722.4 609,724.8     " fill="null" stroke="null" stroke-width="null"/>
				<polygon class="st36" points="1026.2,555.6 1026.2,618.3 552.8,768.6 327,768.1     " fill="null" stroke="null" stroke-width="null"/>
				<line class="st37" x1="824.2" y1="644.9" x2="1025.9" y2="582.6"/>
				<line class="st37" x1="461.3" y1="762" x2="523" y2="740.6"/>
				<line class="st37" x1="814.6" y1="714" x2="1026" y2="713.1"/>
				<line class="st37" x1="0" y1="721" x2="334.7" y2="718.2"/>
				<polygon class="st38" points="1026.2,555.1 1026.2,557.7 602.8,684.6 595.8,684.8 595.7,684.8 2.2,695.4 2.2,693 603.3,682.1           " fill="null" stroke="null" stroke-width="null"/>
				<path class="st38" d="M402.5,745.8L402.5,745.8l-32.4,9.6l-40,11.8l-2,0.6h-11.3l-0.8,0.2h-0.7l0.8-0.2l2-0.6l41-12.2l17.3-5.2      l11.7-3.5h0l1.5-0.5h0l9.9-3l2.8-0.8l0.2,3.4v0L402.5,745.8L402.5,745.8z" fill="null" stroke="null" stroke-width="null"/>
				<polygon class="st38" points="401.8,746 382.2,746.1 382.1,746.1 368.7,746.6 368.7,746.6 368.6,746.6 1.8,752.2 1.8,748.3       402.2,742.2     " fill="null" stroke="null" stroke-width="null"/>
				<polygon class="st38" points="1026.3,741.2 1026.4,746.5 1001.7,746.4 1001.6,746.4 948.5,746.1 948.3,746.1 933.6,746.1       933.5,746.1 633.3,746.3 633.6,742 735.2,741.5 737.6,741.5 759.7,741.4 773.6,741.4 1008.8,741.2 1015.5,741.2 1025.9,741.2           " fill="null" stroke="null" stroke-width="null"/>
				<path class="st38" d="M633.6,741.8l-0.3,4.3l-12.2,2.9L549,772.1h-10l71-22.7h0l0.7-0.2l4.7-1.5h0l2.5-0.8l8.7-2.8h0l0.3-0.1h0      L633.6,741.8L633.6,741.8z" fill="null" stroke="null" stroke-width="null"/>
				<path class="st35" d="M690.4,767.9c0,0.1-0.1,0.2-0.1,0.3H297.4l-0.8,0.1H296c-4,0-25.4,0-55.1,0c0.3,0,0.7-0.1,1.1-0.1      c0.7,0,1.5-0.1,2.4-0.1c2.4-0.1,6.9-0.4,8.5-0.5c3.3-0.2,6.8-3.1,17.3-1.6c0.7-0.5,1-1.3,6.9-1.8c5.8-0.5,9.5-0.6,11.5-0.3      c3.3-1.8,13.2-2.2,18.4-0.8c3.5-1.7,14-1.6,17.3,0.2c2.9-0.7,6-1.4,9.7-1.6c1.9-0.1,3.9-0.1,5.7,0.1c0,0,0.1,0,0.1,0      c0.6,0.1,1.3,0.2,1.8,0.3h0c0.9,0.2,1.6,0.4,2.1,0.8c1.2-0.6,3.6-0.9,6.1-0.9c0.3,0,0.6,0,0.9,0c2.7,0.1,5.3,0.6,5.9,1.3      c3.2-0.9,5.1-2.6,17.5-3c6-0.2,9.1,0.6,13.8,1.7c3.5-2,19.7-1.9,21.9-0.2l5.7-1.1c5-0.7,9.5-0.2,12.9,0h0c1.1,0.1,2,0.1,2.9,0      c1.8-0.1,3.4-0.3,5.2-0.5c4.3-0.3,9.2-0.2,13.3,0.3c1.8,0.2,6.9-0.2,8.7-0.6c4.1-0.8,9.4-1.2,14.4-1.1c2,0,4,0.2,6,0.2      c3.9,0,6.2-1.6,15-1.1l8,0.9c5-0.8,8.9-1.1,12.1-1c3.5,0.1,6.1,0.6,8.3,1.2c1,0.3,1.9,0.6,2.7,0.9c1.3,0.5,2.5,1,3.7,1.5      c4.3-1.5,7.2-2.3,13.9-2.6c9.1-0.4,15,1.1,19.5,2.2c1.7-1.7,11.8-2.7,15.7-1.5c0.9-1.2,5.6-1.9,9.8-1.9c2.8,0,5.5,0.2,8.1,0.6      c1.3,0.2,2.6,0.3,3.8,0.5c2.3-2.1,13.7-2.8,18.8-1.3c4.7-1.8,14-1.5,19,0.2c1.5-0.9,2.1-0.9,5.3-1.8c2.7-0.8,6.7-1.2,9.9-0.7      c0.4,0,0.8,0.1,1.2,0.2c1.6,0.3,4.3,0.5,5.5,0.9c0.3-1,5.3-1.8,11.1-2c3-0.1,5.6,0,7.9,0.3c1.3,0.2,2.5,0.4,3.6,0.6      c0.3,0.1,0.7,0.2,1,0.3c0,0,0,0,0.1,0c0.8,0.2,1.5,0.5,2.2,0.8C692.4,759.4,691.2,765.5,690.4,767.9L690.4,767.9z" fill="null" stroke="null" stroke-width="null"/>
				<g>
					<polygon class="st38" points="1026.3,616.4 1026.3,620.2 933.3,649.4 923.4,652.5 817.2,684.9 817.2,681.7      " fill="null" stroke="null" stroke-width="null"/>
					<polygon class="st38" points="1026.6,680.4 1026.7,684.4 817.2,684.9 817.5,681.7 875.5,681.2 884,681 884,681 884.8,681             " fill="null" stroke="null" stroke-width="null"/>
				</g>
				<path class="st35" d="M610.5,768.1c16.5-3.7,28.5-6.4,42.8-10.3c1.9-0.5,3.8-3.6,7.4-4.8c1.1-0.4,2.5-0.5,4-0.3      c1,0.1,2.2,0.4,3.4,1h0c0.2,0.1,0.3,0.1,0.5,0.2c0.1-0.1,0.1-0.3,0.2-0.4c0.2-0.3,0.3-0.7,0.5-1.2c0.5-0.8,1.3-1.7,3.2-2.5      c0.6-0.2,1.3-0.5,2.2-0.7c4.9-1.2,8.2-1.4,10.1-0.8h0c0.1,0,0.1,0,0.2,0.1c0-0.1,0.1-0.1,0.1-0.2h0c2.4-3.7,8.6-5,13.3-3.4h0      c1,0.3,2,0.8,2.8,1.5c0,0,0.1,0.1,0.2,0.1c0,0,0.1-0.1,0.1-0.1c2.8-3.7,10.8-4.4,14.7-1.4c0.1,0,0.1,0.1,0.2,0.2      c0.5,0.4,0.9,0.8,1.2,1.3c1.2-0.8,1.8-1.3,2.5-1.7c0.1,0,0.2-0.1,0.3-0.1c0.8-0.3,1.6-0.6,3.2-0.8c1.8-0.3,4.4-0.3,6.6,0.1      c0,0,0.1,0,0.1,0c1.7,0.4,3.1,1.1,3.7,2.2c2.2-3.4,10.5-4,12.3-0.6c0.8,0.9,0.8,0.6,2.7-0.2c0.4-0.2,0.8-0.3,1.3-0.5      c1.7-0.5,4.1-0.9,7.8-1.2c2.3-0.2,4.2-0.2,6,0c0.8,0.1,1.5,0.2,2.3,0.5c1.4,0.4,2.8,1,4.2,1.9c0.2,0.1,0.5,0.3,0.7,0.5      c0.1-0.2,0.2-0.4,0.4-0.6c0.8-1,1.9-1.8,3.2-2.4c3-1.3,7.1-1.5,10.8-0.7c1.6,0.3,3.1,0.8,4.5,1.5c0,0,0,0,0,0      c0.8,0.4,1.8,0.4,2.6,0l0.5-0.3l3.2-1.8c0.3-0.1,0.6-0.2,0.8-0.3c2.2-0.7,4.3-0.7,6.2-0.4c2.9,0.3,5.3,3.1,7,2.8      c1.6-0.3,3-0.8,4.6-1.2c1.8-0.4,3.6-0.6,5.3-0.6v-0.1c2.2-0.1,4.3,0.1,6.5,0.6c1.5,0.3,3,0.9,4.6,1.2c1.7,0.3,4.2-2.4,7-2.8      c1.9-0.2,4-0.2,6.2,0.4c0.3,0.1,0.6,0.2,0.8,0.3l3.2,1.8l0.5,0.3c0.8,0.4,1.8,0.4,2.6,0c0,0,0,0,0,0c1.3-0.7,2.9-1.2,4.5-1.5      c3.7-0.8,7.8-0.6,10.8,0.7c1.3,0.6,2.4,1.4,3.2,2.4c0.1,0.2,0.3,0.4,0.4,0.6c0.2-0.2,0.5-0.3,0.7-0.5c1.4-0.9,2.8-1.5,4.2-1.9      c0.7-0.2,1.5-0.4,2.3-0.5c1.8-0.2,3.8-0.2,6,0c3.7,0.3,6.1,0.7,7.8,1.2c0.5,0.2,0.9,0.3,1.3,0.5c1.9,0.8,1.8,1.1,2.7,0.2      c1.8-3.4,10.1-2.8,12.3,0.6c0.6-1.2,2-1.9,3.7-2.2c0,0,0.1,0,0.1,0c2.2-0.5,4.8-0.5,6.6-0.1c1.6,0.3,2.5,0.5,3.2,0.8      c0.1,0,0.2,0.1,0.3,0.1c0.7,0.4,1.4,0.9,2.5,1.7c0.3-0.5,0.7-1,1.2-1.3c0.1-0.1,0.1-0.1,0.2-0.2c3.9-3,11.9-2.3,14.7,1.4      c0,0,0.1,0.1,0.1,0.1c0,0,0.1-0.1,0.2-0.1c0.8-0.6,1.8-1.1,2.8-1.5h0c3-1,6.5-0.9,9.3,0.2c1.5,0.3,3,0.9,4.5,1.1      c1.7,0.3,4.2-2.4,7-2.8c1.9-0.2,4-0.2,6.2,0.4c0.3,0.1,0.6,0.2,0.8,0.3l3.2,1.8l0.5,0.3c0.8,0.4,1.8,0.4,2.6,0c0,0,0,0,0,0      c1.3-0.7,2.9-1.2,4.5-1.5c3.7-0.8,7.8-0.6,10.8,0.7c1.3,0.6,2.4,1.4,3.2,2.4c0.1,0.2,0.3,0.4,0.4,0.6c0.2-0.2,0.5-0.3,0.7-0.5      c1.4-0.9,2.8-1.5,4.2-1.9c0.7-0.2,1.5-0.4,2.3-0.5c1.8-0.2,3.8-0.2,6,0c3.7,0.3,6.1,0.7,7.8,1.2c0.5,0.2,0.9,0.3,1.3,0.5      c1.9,0.8,1.8,1.1,2.7,0.2c0,0,0.8-1.7,5.1-0.9v22C1026.6,768.3,609.9,768.3,610.5,768.1L610.5,768.1z" fill="null" stroke="null" stroke-width="null"/>
				<path class="st35" d="M700.8,750.8c0,0-3-7.2-15-7.2s-12.6,4.2-12.6,4.2s-1.2-5.7-8.5-5.2c-6.5,0.5-6.3,4.9-6.3,4.9      s-3-4.5-7.9-3.4s-5.6,4.5-5.6,4.5s-2.2-5.2-6.7-4.5c-4.8,0.8-5.2,5.2-5.2,5.2s-1.4-5.6-7.2-4.6c-5.4,1-6.3,4.6-6.3,4.6      s-3.6-2.6-7.4-1c-3.1,1.3-4,5-4,5s-3.7-3.4-7.3-1.8s-3.4,5-3.4,5s-2.9-2-6.3-0.6s-4.4,4.1-4.4,4.1s-1.6-2-6.5-0.6      s-5.8,5.7-5.8,5.7l125-4.2L700.8,750.8L700.8,750.8z" fill="null" stroke="null" stroke-width="null"/>
				<line class="st39" x1="532.9" y1="716.4" x2="342.1" y2="718.2"/>
				<line class="st39" x1="825.8" y1="644.4" x2="695.3" y2="685.6"/>
				<line class="st39" x1="814.7" y1="714" x2="680.7" y2="716.2"/>
				<line class="st39" x1="566.8" y1="726.2" x2="522.5" y2="740.8"/>
			</g>
		</g>
	</g>
</g>
</svg>